<svg width="128" height="24" fill="none" xmlns="http://www.w3.org/2000/svg"><g clip-path="url(#a)" fill="#111"><path d="M1.60253 22.0513C.468358 20.3682-.0946573 18.3503.0000302 16.3077V7.79487C-.137317 5.73031.390444 3.67661 1.50238 1.94872 2.6041.615385 4.30676 0 6.81067 0c2.50391 0 4.10643.615385 5.10803 1.74359 1.0873 1.42896 1.6222 3.21822 1.5023 5.02564v2.05128H8.51333V6.46154c.03964-.69769-.06268-1.39621-.30047-2.05128-.1271-.26443-.32855-.48386-.57843-.63008-.24988-.14623-.53677-.21255-.82376-.19044-.70109 0-1.20188.20513-1.40219.71795-.22657.72874-.32823 1.49215-.30047 2.25641v10.9744c-.05289.7414.08526 1.4842.40063 2.1538.20031.5128.70109.718 1.40219.718.70109 0 1.10172-.2052 1.30203-.718.22772-.6931.32956-1.4231.30047-2.1538v-2.4616H13.421v2.0513c.1019 1.8369-.4299 3.6521-1.5023 5.1282-1.0016 1.2308-2.70427 1.8462-5.10803 1.8462-2.40375-.1026-4.20657-.718-5.20814-2.0513ZM19.3302.307617h5.7089L29.2457 23.6922h-4.6072l-.8013-4.923h-3.3051l-.8013 4.923h-4.7073L19.3302.307617ZM23.4366 15.6922l-1.2019-9.12817-1.2018 9.12817h2.4037ZM32.7512 4.20505h-3.4053V.307617h11.9186V4.10249h-3.4053V23.6922h-5.108V4.20505ZM50.3787.307617h8.8138V2.76916h-5.7089v7.69234h4.6072v2.3589h-4.6072v8.6154h5.7089v2.359h-8.9139V.307617h.1001ZM61.7966.307617H64L70.5102 15.7948V.307617h2.604V23.6922h-2.0031L64.5008 7.69223V23.6922h-2.7042V.307617ZM76.1189.307617h8.8138V2.76916h-5.7089v7.69234h4.6072v2.3589h-4.6072v8.6154h5.7089v2.359h-8.8138V.307617ZM87.5368.3076h4.6072c1.8124-.128203 3.6135.378111 5.1079 1.4359 1.1018.92307 1.6025 2.5641 1.6025 4.71795 0 2.97435-.9014 4.82055-2.8043 5.43585l3.205 11.6924h-3.1049l-3.0047-10.9744h-2.5039v10.9744h-3.205V.3076h.1002Zm4.4069 10.0513c1.0325.0871 2.0616-.2036 2.9045-.82053.6009-.51282.9014-1.53846.9014-3.07692.0278-.76426-.0739-1.52767-.3005-2.25641-.2254-.52293-.6125-.9554-1.1017-1.23077-.6898-.32191-1.4471-.4629-2.2034-.41026h-1.4022v7.69229h1.2019v.1026ZM102.861 21.9487c-1.041-1.7933-1.53-3.8666-1.402-5.9488V8.20507c-.025-1.48632.143-2.9694.5-4.41026.335-1.0767 1.003-2.01263 1.903-2.66666 1.119-.677875 2.409-.999233 3.706-.92308 2.103 0 3.606.51282 4.507 1.64103 1.037 1.48972 1.533 3.30367 1.402 5.1282v.82051h-3.004v-.71794c.004-.85898-.063-1.71679-.201-2.56411-.084-.53544-.372-1.01484-.801-1.33333-.563-.37839-1.231-.55844-1.903-.51282-.718-.04712-1.429.17124-2.003.61538-.236.2033-.428.4537-.566.73588-.138.28217-.218.59018-.235.90515-.132.91691-.199 1.84241-.201 2.76923v8.71795c-.073 1.3282.131 2.6572.601 3.8974.401.8205 1.202 1.1282 2.404 1.1282.475.0606.956-.0239 1.384-.2429.428-.219.782-.5627 1.02-.9878.529-1.297.769-2.6987.701-4.1026v-1.641h-2.905v-2.359h5.809v11.5898h-2.003l-.3-2.6667c-.263.8937-.809 1.6719-1.554 2.2108-.744.5389-1.642.8077-2.553.7635-.827.0499-1.654-.1114-2.406-.4695-.751-.358-1.404-.9015-1.9-1.5817ZM119.987 15.4871 115.08.410156h3.004L121.59 11.6922 124.995.410156H128L123.092 15.4871v8.2051h-3.004v-8.2051h-.101Z"/></g><defs><clipPath id="a"><path fill="#fff" d="M0 0h128v24H0z"/></clipPath></defs></svg>