<svg width="113" height="16" fill="none" xmlns="http://www.w3.org/2000/svg"><path d="M.28125 12V.546875h1.51563V5.25H7.75V.546875h1.51562V12H7.75V6.60156H1.79688V12H.28125Zm14.42965 0V1.89844h-3.7734V.546875h9.0781V1.89844h-3.789V12h-1.5157Zm6.8203 0V.546875h2.2813l2.7109 8.109375c.25.75521.4323 1.32031.5469 1.69535.1302-.4167.3333-1.02868.6094-1.83598L30.4219.546875h2.039V12H31V2.41406L27.6719 12h-1.3672l-3.3125-9.75V12h-1.461Zm13.3126 0V.546875h1.5156V10.6484H42V12h-7.1562Zm10.6796 0L49.9219.546875h1.6328L56.2422 12h-1.7266l-1.3359-3.46875h-4.7891L47.1328 12h-1.6094Zm3.3047-4.70312h3.8828L51.5156 4.125c-.3646-.96354-.6354-1.75521-.8125-2.375-.1458.73438-.3515 1.46354-.6172 2.1875l-1.2578 3.35938Zm13.8594 1.66406 1.3828.17968c-.151.95318-.5391 1.70048-1.1641 2.24218-.6197.5365-1.3828.8047-2.289.8047-1.1354 0-2.0495-.3698-2.7422-1.1094-.6875-.7448-1.0312-1.80987-1.0312-3.19529 0-.89583.1484-1.67969.4453-2.35156.2968-.67187.7474-1.17448 1.3515-1.50781.6094-.33854 1.2709-.50782 1.9844-.50782.901 0 1.638.22917 2.2109.6875.573.45313.9401 1.09896 1.1016 1.9375l-1.3672.21094c-.1302-.55729-.362-.97656-.6953-1.25781-.3281-.28125-.7266-.42187-1.1953-.42187-.7083 0-1.2839.2552-1.7266.76562-.4427.50521-.664 1.30729-.664 2.40625 0 1.11458.2135 1.92448.6406 2.42965.4271.5052.9844.7578 1.6719.7578.552 0 1.013-.1692 1.3828-.5078.3698-.3385.6041-.85934.7031-1.56246Zm8 2.01566c-.5208.4427-1.0234.7552-1.5078.9375-.4792.1823-.9948.2734-1.5469.2734-.9114 0-1.612-.2214-2.1016-.6641-.4895-.4479-.7343-1.0182-.7343-1.7109 0-.40625.0911-.77604.2734-1.10938.1875-.33854.4297-.60937.7266-.8125.3021-.20312.6406-.35677 1.0156-.46093.276-.07292.6927-.14323 1.25-.21094 1.1354-.13542 1.9714-.29687 2.5078-.48437.0052-.19271.0078-.31511.0078-.36719 0-.57292-.1328-.97657-.3984-1.21094-.3594-.31771-.8932-.47656-1.6016-.47656-.6614 0-1.151.11719-1.4687.35156-.3125.22917-.5443.63802-.6953 1.22656l-1.375-.1875c.125-.58854.3307-1.0625.6171-1.42187.2865-.36459.7006-.64323 1.2422-.83594.5417-.19792 1.1693-.29688 1.8828-.29688.7084 0 1.2839.08334 1.7266.25.4427.16667.7682.37761.9766.63282.2083.25.3541.56771.4375.95312.0469.23959.0703.67188.0703 1.29688v1.875c0 1.30729.0286 2.13546.0859 2.48436.0625.3438.1823.6745.3594.9922h-1.4687c-.1459-.2917-.2396-.6328-.2813-1.0234Zm-.1172-3.14066c-.5104.20833-1.276.38541-2.2969.53125-.5781.08333-.9869.17708-1.2265.28125-.2396.10416-.4245.25781-.5547.46094-.1302.19791-.1953.41927-.1953.66406 0 .37496.1406.68746.4219.93746.2864.25.7031.375 1.25.375.5416 0 1.0234-.1171 1.4453-.3515.4218-.2396.7317-.5651.9297-.97659.151-.31771.2265-.78646.2265-1.40625v-.51562ZM79.5625 12v-1.0469c-.526.8229-1.2995 1.2344-2.3203 1.2344-.6615 0-1.2708-.1823-1.8281-.5469-.5521-.3646-.9818-.8724-1.2891-1.5234-.3021-.65626-.4531-1.40887-.4531-2.25782 0-.82813.138-1.57813.414-2.25.2761-.67709.6901-1.19532 1.2422-1.55469.5521-.35938 1.1693-.53907 1.8516-.53907.5 0 .9453.10678 1.3359.32032.3906.20833.7084.48177.9532.82031V.546875h1.3984V12h-1.3047Zm-4.4453-4.14062c0 1.0625.2239 1.85677.6719 2.38282.4479.526.9765.789 1.5859.789.6146 0 1.1354-.25 1.5625-.75.4323-.50516.6484-1.27339.6484-2.30464 0-1.13541-.2187-1.96875-.6562-2.5s-.9766-.79687-1.6172-.79687c-.625 0-1.1484.25521-1.5703.76562-.4167.51042-.625 1.31511-.625 2.41407Zm13.6484 1.46874 1.4532.17969c-.2292.84899-.6537 1.50779-1.2735 1.97659-.6198.4687-1.4114.7031-2.375.7031-1.2135 0-2.1771-.3724-2.8906-1.1172-.7083-.75-1.0625-1.79947-1.0625-3.14842 0-1.39584.3594-2.47917 1.0781-3.25.7188-.77084 1.6511-1.15626 2.7969-1.15626 1.1094 0 2.0156.37761 2.7187 1.13282.7032.75521 1.0547 1.81771 1.0547 3.1875 0 .08333-.0026.20833-.0078.375h-6.1875c.0521.91146.3099 1.60937.7735 2.09376.4635.4844 1.0416.7265 1.7343.7265.5157 0 .9558-.1354 1.3203-.4062.3646-.2708.6537-.70312.8672-1.29688Zm-4.6172-2.27343h4.6328c-.0624-.69792-.2395-1.22136-.5312-1.57031-.4479-.54167-1.0286-.8125-1.7422-.8125-.6458 0-1.1901.21614-1.6328.64843-.4375.43229-.6797 1.01042-.7266 1.73438ZM91.9922 12V3.70312H93.25v1.16407c.2604-.40625.6068-.73177 1.0391-.97657.4323-.25.9244-.375 1.4765-.375.6146 0 1.1172.12761 1.5078.38282.3959.25521.6745.61198.836 1.07031.6562-.96875 1.5104-1.45313 2.5626-1.45313.823 0 1.456.22917 1.898.6875.443.45313.664 1.15365.664 2.10157V12h-1.398V6.77344c0-.5625-.047-.96615-.141-1.21094-.088-.25-.252-.45052-.492-.60156-.239-.15104-.521-.22656-.844-.22656-.583 0-1.0673.19531-1.4528.58593-.3854.38542-.5781 1.00521-.5781 1.85938V12h-1.4062V6.60938c0-.625-.1146-1.09376-.3438-1.40626-.2291-.3125-.6041-.46874-1.125-.46874-.3958 0-.763.10416-1.1015.3125-.3334.20833-.5756.51302-.7266.91406-.151.40104-.2266.97916-.2266 1.73437V12h-1.4062Zm13.2658 3.1953-.156-1.3203c.307.0833.575.125.804.125.313 0 .563-.0521.75-.1562.188-.1042.341-.25.461-.4376.089-.1406.232-.4895.43-1.0468.026-.0782.068-.1927.125-.3438l-3.149-8.31248h1.516l1.727 4.80469c.224.60938.424 1.25.601 1.92189.162-.64585.354-1.27605.578-1.89064l1.774-4.83594h1.406l-3.156 8.43748c-.339.9115-.602 1.5391-.789 1.8828-.25.4636-.537.8021-.86 1.0157-.323.2187-.708.3281-1.156.3281-.271 0-.573-.0573-.906-.1719Z" fill="#444"/></svg>