<svg width="20" height="21" fill="none" xmlns="http://www.w3.org/2000/svg"><g clip-path="url(#a)" fill="#000"><path d="M17.9 9.75275H9.39999v1.20415H17.9l-2.1 2.1072.9.9031 3.1-3.1107c.0974-.1302.15-.2887.15-.4515 0-.1629-.0526-.3213-.15-.45156l-3.1-3.11067-.9.9031 2.1 2.00688ZM8.10001 19.7872v-6.2213c-.01155-.1559-.07847-.3024-.18859-.4129-.11011-.1105-.25611-.1776-.41141-.1892h-4.4c.00515.3177.13324.621.35717.8457.22394.2247.52618.3532.84283.3584h2.5v5.0172h-3.7c-.23675.0149-.4741-.0175-.69825-.0955-.22414-.0779-.43061-.1998-.6074-.3585-.17679-.1588-.32037-.3512-.4224-.5661-.10204-.2149-.16048-.448-.17195-.6857V3.43111c-.0082-.4643.16515-.91337.48291-1.25098.31777-.33761.75466-.53691 1.21709-.55521h3.9v5.0172h-2.4c-.31665.00517-.61889.13369-.84283.3584-.22393.22471-.35202.52799-.35717.84573h4.4c.1553-.01159.3013-.07874.41141-.18924.11012-.1105.17704-.25699.18859-.41283V.922517c-.04769-.156677-.13884-.296495-.2628-.40311-.12396-.106615-.2756-.175622-.4372-.198954h-4.4c-.39402-.013399-.7868.051263-1.1559.190291-.3691.139027-.70727.349692-.995177.619946-.287907.27026-.519903.59481-.682726.9551-.162822.36029-.253277.74925-.2661924 1.14464V17.1782c-.028979.3991.0246358.7998.1574724 1.177.132837.3772.342022.7228.614399 1.0149.272374.2922.602054.5246.968304.6828.36624.1581.76113.2384 1.15982.236h4.6c.07349.0151.14942.0133.22215-.005.07274-.0184.14043-.053.19805-.1011.05762-.0482.1037-.1088.13483-.1773.03112-.0684.04649-.1431.04497-.2183Z"/></g><defs><clipPath id="a"><path fill="#fff" transform="translate(0 .320435)" d="M0 0h20v20.0688H0z"/></clipPath></defs></svg>